<svg width="533" height="240" xmlns="http://www.w3.org/2000/svg">
 <!-- Created with Method Draw - http://github.com/duopixel/Method-Draw/ -->
 <g>
  <title>background</title>
  <rect fill="#1e252b" id="canvas_background" height="242" width="535" y="-1" x="-1"/>
  <g display="none" overflow="visible" y="0" x="0" height="100%" width="100%" id="canvasGrid">
   <rect fill="url(#gridpattern)" stroke-width="0" y="0" x="0" height="100%" width="100%"/>
  </g>
 </g>
 <g>
  <title>Layer 1</title>
  <text stroke="#f4f4f4" transform="matrix(8.949362276899476,0,0,7.6062561133167055,-1721.6571361462616,-1087.3290242676628) " xml:space="preserve" text-anchor="start" font-family="Helvetica, Arial, sans-serif" font-size="9" id="svg_3" y="172.611676" x="192.380821" stroke-width="0" fill="#fcfcfc">trueBartenders</text>
  <path id="svg_4" d="m221.632857,148.543546c-13.454278,-6.329632 0.341392,-18.828736 11.5599,-14.786552c8.348323,-0.016711 16.696694,-0.005685 25.045041,-0.008899c0,-14.407732 0,-28.815484 0,-43.223224c-20.912603,-22.136434 -41.825207,-44.272868 -62.737805,-66.409302c47.333189,-0.154176 94.666818,-0.154009 141.999998,0c-20.536639,22.245815 -41.073277,44.491626 -61.609911,66.737441c0,14.298372 0,28.596726 0,42.895085c12.326465,0.096438 24.67403,-0.262219 36.982417,0.365059c9.690973,2.284377 5.81164,16.250678 -3.606533,14.778413c-29.210107,-0.089192 -58.429537,0.162429 -87.633107,-0.348017l0,-0.000004zm60.737938,-78.254147c9.413913,-3.147887 8.090465,-16.769003 -2.007895,-18.157825c-15.233218,-3.68213 -18.522619,19.506826 -2.511462,18.962644c1.546082,0.008911 3.117004,-0.183197 4.519352,-0.804819l0.000005,0z" stroke-opacity="null" stroke-width="0" stroke="#000" fill="#f45724"/>
 </g>
</svg>
